<?xml version="1.0" standalone="no"?>
<!DOCTYPE svg PUBLIC "-//W3C//DTD SVG 20010904//EN"
 "http://www.w3.org/TR/2001/REC-SVG-20010904/DTD/svg10.dtd">
<svg version="1.0" xmlns="http://www.w3.org/2000/svg"
 width="334.000000pt" height="60.000000pt" viewBox="0 0 334.000000 60.000000"
 preserveAspectRatio="xMidYMid meet">

<g transform="translate(0.000000,60.000000) scale(0.100000,-0.100000)"
fill="#000000" stroke="none">
<path d="M2797 522 c-14 -15 -17 -40 -17 -129 0 -133 2 -136 109 -143 l76 -5
3 -75 c2 -56 7 -78 19 -88 23 -16 244 -17 261 0 8 8 12 51 12 129 0 146 -2
149 -106 149 l-74 0 0 68 c0 107 -6 112 -149 112 -102 0 -120 -3 -134 -18z
m241 -124 l3 -108 -111 0 -110 0 0 103 c0 57 3 107 7 111 4 4 52 5 107 4 l101
-3 3 -107z m190 -177 c2 -60 -1 -98 -9 -107 -15 -18 -189 -20 -207 -2 -7 7
-12 39 -12 74 0 61 0 62 31 68 22 4 34 14 42 36 12 31 12 31 82 28 l70 -3 3
-94z"/>
<path d="M2915 456 c-3 -9 -7 -23 -10 -31 -2 -8 -14 -15 -25 -15 -11 0 -20 -7
-20 -15 0 -9 9 -15 25 -15 20 0 25 -5 25 -23 0 -13 3 -27 7 -30 10 -11 33 13
33 34 0 14 7 19 25 19 16 0 25 6 25 15 0 9 -9 15 -24 15 -19 0 -25 6 -28 27
-3 30 -25 43 -33 19z"/>
<path d="M3047 224 c-18 -18 -1 -24 69 -24 56 0 75 3 72 13 -5 13 -129 23
-141 11z"/>
<path d="M70 305 c0 -87 2 -95 19 -95 15 0 21 8 23 33 3 27 7 32 33 35 36 4
55 26 55 63 0 41 -24 59 -81 59 l-49 0 0 -95z m85 35 c0 -8 -10 -16 -22 -18
-18 -3 -23 2 -23 18 0 16 5 21 23 18 12 -2 22 -10 22 -18z"/>
<path d="M280 305 l0 -95 55 0 c48 0 55 3 55 19 0 15 -8 21 -32 23 l-33 3 -3
73 c-3 64 -5 72 -22 72 -18 0 -20 -7 -20 -95z m83 -82 c-7 -2 -19 -2 -25 0 -7
3 -2 5 12 5 14 0 19 -2 13 -5z"/>
<path d="M460 330 c0 -62 3 -74 25 -95 32 -33 86 -34 115 -3 16 18 20 35 20
95 0 66 -2 73 -20 73 -17 0 -19 -8 -22 -66 -3 -70 -18 -94 -52 -81 -13 5 -16
21 -16 77 0 68 -1 70 -25 70 -24 0 -25 -2 -25 -70z m87 -94 c11 -1 19 -4 16
-8 -7 -13 -38 -9 -59 8 -19 15 -19 16 1 8 11 -4 30 -8 42 -8z"/>
<path d="M716 384 c-30 -29 -21 -56 32 -93 42 -29 41 -45 -2 -38 -26 4 -36 2
-41 -10 -8 -21 12 -33 56 -33 40 0 69 24 69 58 0 15 -14 30 -41 47 -51 33 -49
60 3 40 23 -9 37 23 17 36 -23 14 -76 10 -93 -7z m77 -2 c3 -4 -9 -7 -26 -7
-28 0 -32 -3 -32 -27 1 -14 -3 -24 -7 -22 -12 8 -10 38 4 52 13 13 54 16 61 4z
m-38 -152 c13 -6 15 -9 5 -9 -8 0 -22 4 -30 9 -18 12 -2 12 25 0z"/>
<path d="M926 383 c-8 -28 -26 -135 -26 -155 0 -11 7 -18 20 -18 14 0 20 7 20
23 0 13 9 34 19 46 l20 22 11 -20 c15 -30 22 -27 49 24 22 42 41 58 41 35 0
-5 -4 -10 -10 -10 -5 0 -19 -19 -31 -42 -28 -56 -25 -54 -48 -27 -11 13 -20
20 -21 16 0 -14 30 -67 38 -67 5 0 16 17 26 38 20 39 21 38 40 -21 6 -19 41
-20 41 -2 -1 43 -30 175 -38 172 -5 -1 -21 -26 -36 -55 -14 -28 -28 -52 -31
-52 -3 0 -18 25 -35 55 -31 58 -41 66 -49 38z m28 -38 c3 -8 1 -15 -4 -15 -6
0 -10 7 -10 15 0 8 2 15 4 15 2 0 6 -7 10 -15z m-27 -107 c-3 -8 -6 -5 -6 6
-1 11 2 17 5 13 3 -3 4 -12 1 -19z"/>
<path d="M1200 305 c0 -88 1 -95 20 -95 19 0 20 7 20 95 0 88 -1 95 -20 95
-19 0 -20 -7 -20 -95z"/>
<path d="M1330 320 c0 -97 18 -107 22 -13 3 61 4 65 18 48 9 -11 10 -16 3 -11
-10 5 -13 -9 -13 -58 0 -54 -3 -64 -15 -60 -8 4 -15 1 -15 -5 0 -15 40 -14 41
2 1 32 8 70 14 75 3 3 27 -15 53 -41 26 -26 51 -47 55 -47 4 0 7 43 7 95 0 88
-1 95 -20 95 -17 0 -20 -7 -20 -45 0 -25 -3 -45 -6 -45 -4 0 -31 20 -60 45
-28 25 -55 45 -58 45 -3 0 -6 -36 -6 -80z m160 -9 c0 -6 -4 -13 -10 -16 -5 -3
-10 1 -10 9 0 9 5 16 10 16 6 0 10 -4 10 -9z m-10 -51 c0 -5 -5 -10 -11 -10
-5 0 -7 5 -4 10 3 6 8 10 11 10 2 0 4 -4 4 -10z"/>
<path d="M1590 325 c0 -88 17 -115 74 -115 66 0 83 33 78 148 -2 35 -5 42 -22
42 -18 0 -20 -7 -20 -70 0 -56 -3 -72 -16 -77 -34 -13 -49 11 -52 81 -3 58 -5
66 -22 66 -18 0 -20 -7 -20 -75z m70 -101 c0 -2 -9 0 -20 6 -11 6 -20 13 -20
16 0 2 9 0 20 -6 11 -6 20 -13 20 -16z m40 12 c0 -2 -7 -7 -16 -10 -8 -3 -12
-2 -9 4 6 10 25 14 25 6z"/>
<path d="M1841 381 c-26 -26 -16 -58 25 -83 44 -26 46 -53 4 -44 -23 4 -32 2
-37 -10 -7 -20 13 -34 50 -34 43 0 67 17 67 48 0 35 -8 46 -47 66 -44 22 -43
40 1 33 26 -4 36 -2 41 10 13 36 -72 46 -104 14z m69 5 c0 -2 -13 -6 -29 -8
-17 -2 -28 -1 -25 4 5 8 54 12 54 4z m-30 -156 c8 -5 11 -10 5 -10 -5 0 -17 5
-25 10 -8 5 -10 10 -5 10 6 0 17 -5 25 -10z"/>
<path d="M2049 371 c-37 -38 -39 -88 -5 -128 24 -28 50 -27 27 1 -9 11 -4 11
23 -2 24 -11 32 -19 23 -24 -19 -12 31 -10 54 2 30 17 52 68 45 106 -14 74
-111 100 -167 45z m116 -2 c5 -5 -5 -4 -23 2 -17 6 -32 13 -32 16 0 7 43 -8
55 -18z m-11 -25 c23 -22 20 -71 -3 -84 -27 -14 -47 -13 -65 6 -32 32 -10 94
34 94 10 0 26 -7 34 -16z m11 -104 c-3 -5 -12 -10 -18 -10 -7 0 -6 4 3 10 19
12 23 12 15 0z"/>
<path d="M2300 305 c0 -87 2 -95 19 -95 17 0 20 8 23 49 l3 50 54 -49 c30 -27
58 -47 62 -45 4 3 6 44 5 92 -1 83 -2 88 -23 91 -21 3 -23 -1 -23 -42 0 -25
-4 -46 -8 -46 -4 0 -28 20 -52 45 -24 25 -48 45 -52 45 -4 0 -8 -43 -8 -95z
m147 -12 c-2 -16 -4 -3 -4 27 0 30 2 43 4 28 2 -16 2 -40 0 -55z m-123 52 c-4
-8 -8 -15 -10 -15 -2 0 -4 7 -4 15 0 8 4 15 10 15 5 0 7 -7 4 -15z m6 -117 c0
-5 -4 -8 -10 -8 -5 0 -10 10 -10 23 0 18 2 19 10 7 5 -8 10 -18 10 -22z"/>
<path d="M2560 305 c0 -57 4 -95 10 -95 6 0 10 6 10 13 0 7 14 12 35 12 24 0
34 -4 30 -12 -2 -8 4 -13 15 -13 13 0 20 7 20 20 0 17 -7 20 -41 20 -33 0 -40
3 -37 18 2 11 14 18 36 20 45 5 41 36 -6 40 -49 5 -42 32 8 32 33 0 40 3 40
20 0 18 -7 20 -60 20 l-60 0 0 -95z m100 81 c0 -2 -18 -6 -40 -8 -22 -2 -40 0
-40 4 0 5 18 8 40 8 22 0 40 -2 40 -4z"/>
<path d="M2608 213 c7 -3 16 -2 19 1 4 3 -2 6 -13 5 -11 0 -14 -3 -6 -6z"/>
</g>
</svg>
